<svg width="100" height="100" viewBox="0 0 100 100" fill="none" xmlns="http://www.w3.org/2000/svg">
<rect width="100" height="100" fill="black"/>
<path d="M58.755 40.68C57.6342 41.3458 56.9524 42.5665 56.962 43.8807L56.9928 47.6791L57.039 53.401L57.0699 57.324C57.0795 58.5369 57.7285 59.6545 58.7723 60.2522L70.1679 66.7859C72.2632 64.2005 73.8675 61.1925 74.8343 57.91L63.8471 51.6099C62.9862 51.1154 62.9766 49.8655 63.8297 49.3593L74.7149 42.878C73.6903 39.6014 72.0302 36.611 69.8828 34.0547L58.755 40.68Z" fill="white"/>
<path d="M37.906 48.3919C39.0384 49.0383 40.4251 49.0266 41.544 48.3588L44.7834 46.4314L49.6617 43.5266L53.005 41.5349C54.0392 40.9197 54.6709 39.7924 54.6613 38.5795L54.5554 25.3367C51.2929 24.7974 47.9149 24.8987 44.6177 25.693L44.7198 38.4627C44.7275 39.4634 43.6625 40.0981 42.8016 39.6055L31.8048 33.3229C29.511 35.8597 27.7816 38.8073 26.6665 41.9671L37.9099 48.3899L37.906 48.3919Z" fill="white"/>
<path d="M54.8663 62.6819C54.8566 61.3678 54.1537 60.1587 53.0232 59.5104L49.755 57.6356L44.8324 54.8126L41.4563 52.8773C40.4124 52.2777 39.1317 52.2874 38.0956 52.9027L26.7964 59.6058C27.9616 62.7345 29.7353 65.6432 32.0618 68.1332L42.9565 61.6695C43.8097 61.1633 44.8863 61.7805 44.894 62.7812L44.9961 75.5509C48.3163 76.2946 51.7059 76.3375 54.9703 75.7378L54.8643 62.6819H54.8663Z" fill="white"/>
</svg>
