<svg width="150" height="100" viewBox="0 0 150 100" fill="none" xmlns="http://www.w3.org/2000/svg">
<path d="M36.3366 43.96C35.6961 44.3404 35.3066 45.038 35.3121 45.7889L35.3297 47.9594L35.3561 51.2291L35.3737 53.4708C35.3792 54.1639 35.7501 54.8025 36.3465 55.1441L42.8583 58.8776C44.0556 57.4002 44.9723 55.6814 45.5248 53.8057L39.2464 50.2056C38.7545 49.923 38.749 49.2088 39.2365 48.9195L45.4566 45.216C44.8711 43.3436 43.9225 41.6348 42.6954 40.1741L36.3366 43.96Z" fill="black"/>
<path d="M24.4226 48.3668C25.0697 48.7362 25.862 48.7295 26.5014 48.3479L28.3525 47.2465L31.1401 45.5866L33.0506 44.4485C33.6416 44.097 34.0025 43.4528 33.997 42.7597L33.9365 35.1924C32.0722 34.8842 30.1419 34.9421 28.2579 35.396L28.3162 42.693C28.3206 43.2648 27.712 43.6275 27.2201 43.346L20.9362 39.7559C19.6255 41.2055 18.6372 42.8899 18 44.6955L24.4248 48.3657L24.4226 48.3668Z" fill="black"/>
<path d="M34.1142 56.5325C34.1087 55.7816 33.707 55.0907 33.061 54.7202L31.1934 53.6489L28.3805 52.0357L26.4513 50.9299C25.8548 50.5873 25.123 50.5928 24.5309 50.9444L18.0742 54.7748C18.74 56.5626 19.7536 58.2247 21.083 59.6476L27.3086 55.954C27.7961 55.6648 28.4113 56.0174 28.4157 56.5893L28.474 63.8862C30.3713 64.3112 32.3082 64.3357 34.1736 63.993L34.1131 56.5325H34.1142Z" fill="black"/>
<path d="M55.5249 42.3658H65.085V61.6957H69.8656V42.3658H74.6463H79.4258V37.5342H55.5249V42.3658Z" fill="black"/>
<path d="M86.5962 37.5342V37.6232L81.9036 42.3658H81.8156V42.4548L81.7881 42.4838H81.8156V61.6957H86.5962V42.4838H86.6061V42.3658H100.937V61.6957H105.716V42.3658L100.937 37.5342H86.5962Z" fill="black"/>
<path d="M127.228 37.5342H112.889V42.3658H127.228V47.1986H125.736V47.1596H112.889V42.3658H108.108V61.6957H112.889V52.0313H125.736H127.228V61.6957H132.009V42.3658L127.228 37.5342Z" fill="black"/>
</svg>
